# xmcd
#
# Track frame offsets:
#	150
#	11022
#	27826
#	44807
#	63167
#	79280
#	97638
#	106349
#	120987
#	138928
#	155460
#	172668
#	188027
#	204144
#	220678
#	229934
#	236310
#	251302
#	268365
#	285932
#	302220
#
# Disc length: 4244 seconds
#
# Revision: 2
# Processed by: cddbd v1.5.1PL2 Copyright (c) Steve Scherf et al.
# Submitted via: EasyCDDAExtractor 5.0.7
#
DISCID=09109215
DTITLE=Sean Paul - Dutty Rock
DYEAR=1900
DGENRE=Reggae Dancehall
TTITLE0=Dutty Rock (Intro)
TTITLE1=Shout (Street Respect)
TTITLE2=Gimmie The Light
TTITLE3=Like Glue
TTITLE4=Get Busy
TTITLE5=Top Of The Game Ft. Rahzel
TTITLE6=Police (Skit)
TTITLE7=Ganja Breed
TTITLE8=Concrete
TTITLE9=I'm Still In Love With You Ft. Sasha
TTITLE10=International Affair Ft. Debbie Nova
TTITLE11=Can You Do The Work Ft. Ce'cile
TTITLE12=Punkie
TTITLE13=My Name
TTITLE14=Jukin' Punny
TTITLE15=Uptown Haters (Skit)
TTITLE16=Gimmie The Light Ft. Busta Rhymes
TTITLE17=Bubble Ft. Fahrenheit
TTITLE18=Shake That Thing
TTITLE19=Esa Loca Ft. Tony Touch, R.O.B.B.
TTITLE20=It's On
EXTD=
EXTT0=
EXTT1=
EXTT2=
EXTT3=
EXTT4=
EXTT5=
EXTT6=
EXTT7=
EXTT8=
EXTT9=
EXTT10=
EXTT11=
EXTT12=
EXTT13=
EXTT14=
EXTT15=
EXTT16=
EXTT17=
EXTT18=
EXTT19=
EXTT20=
PLAYORDER=
